<svg id="visual" viewBox="0 0 900 600" width="900" height="600" xmlns="http://www.w3.org/2000/svg" xmlns:xlink="http://www.w3.org/1999/xlink" version="1.1"><path d="M0 133L82 133L82 61L164 61L164 103L245 103L245 67L327 67L327 85L409 85L409 121L491 121L491 49L573 49L573 49L655 49L655 133L736 133L736 73L818 73L818 73L900 73L900 79L900 0L900 0L818 0L818 0L736 0L736 0L655 0L655 0L573 0L573 0L491 0L491 0L409 0L409 0L327 0L327 0L245 0L245 0L164 0L164 0L82 0L82 0L0 0Z" fill="#160f4b"></path><path d="M0 217L82 217L82 211L164 211L164 355L245 355L245 205L327 205L327 277L409 277L409 241L491 241L491 307L573 307L573 193L655 193L655 325L736 325L736 247L818 247L818 271L900 271L900 271L900 77L900 71L818 71L818 71L736 71L736 131L655 131L655 47L573 47L573 47L491 47L491 119L409 119L409 83L327 83L327 65L245 65L245 101L164 101L164 59L82 59L82 131L0 131Z" fill="#002d62"></path><path d="M0 265L82 265L82 307L164 307L164 451L245 451L245 253L327 253L327 337L409 337L409 283L491 283L491 361L573 361L573 295L655 295L655 373L736 373L736 349L818 349L818 343L900 343L900 349L900 269L900 269L818 269L818 245L736 245L736 323L655 323L655 191L573 191L573 305L491 305L491 239L409 239L409 275L327 275L327 203L245 203L245 353L164 353L164 209L82 209L82 215L0 215Z" fill="#004872"></path><path d="M0 499L82 499L82 451L164 451L164 547L245 547L245 475L327 475L327 439L409 439L409 493L491 493L491 523L573 523L573 511L655 511L655 517L736 517L736 499L818 499L818 505L900 505L900 475L900 347L900 341L818 341L818 347L736 347L736 371L655 371L655 293L573 293L573 359L491 359L491 281L409 281L409 335L327 335L327 251L245 251L245 449L164 449L164 305L82 305L82 263L0 263Z" fill="#006079"></path><path d="M0 601L82 601L82 601L164 601L164 601L245 601L245 601L327 601L327 601L409 601L409 601L491 601L491 601L573 601L573 601L655 601L655 601L736 601L736 601L818 601L818 601L900 601L900 601L900 473L900 503L818 503L818 497L736 497L736 515L655 515L655 509L573 509L573 521L491 521L491 491L409 491L409 437L327 437L327 473L245 473L245 545L164 545L164 449L82 449L82 497L0 497Z" fill="#007673"></path></svg>